<svg xmlns="http://www.w3.org/2000/svg">
  <symbol id="lamp" viewBox="0 0 512 512">
    <path class="st0" d="M256,438.3c8.8,0,16,7.2,16,16V496c0,8.8-7.2,16-16,16c-8.8,0-16-7.2-16-16v-41.7C240,445.4,247.2,438.3,256,438.3z"/>
    <path class="st0" d="M115.8,380.2c4.1,0,8.2,1.6,11.3,4.7c6.3,6.3,6.3,16.4,0,22.6L97.6,437c-6.3,6.3-16.4,6.3-22.6,0c-6.3-6.3-6.3-16.4,0-22.6l29.5-29.5C107.6,381.8,111.7,380.2,115.8,380.2z"/>
    <path class="st0" d="M16,240h41.7c8.8,0,16,7.2,16,16c0,8.8-7.2,16-16,16H16c-8.8,0-16-7.2-16-16C0,247.2,7.2,240,16,240z"/>
    <path class="st0" d="M86.3,70.3c4.1,0,8.2,1.6,11.3,4.7l29.5,29.5c6.3,6.3,6.3,16.4,0,22.6c-6.3,6.3-16.4,6.3-22.6,0L75,97.6c-6.3-6.3-6.3-16.4,0-22.6C78.1,71.9,82.2,70.3,86.3,70.3z"/>
    <path class="st0" d="M425.7,70.3c4.1,0,8.2,1.6,11.3,4.7c6.3,6.3,6.3,16.4,0,22.6l-29.5,29.5c-6.3,6.3-16.4,6.3-22.6,0c-6.3-6.3-6.3-16.4,0-22.6L414.4,75C417.5,71.9,421.6,70.3,425.7,70.3z"/>
    <path class="st0" d="M454.3,240H496c8.8,0,16,7.2,16,16c0,8.8-7.2,16-16,16h-41.7c-8.8,0-16-7.2-16-16C438.3,247.2,445.4,240,454.3,240z"/>
    <path class="st0" d="M396.2,380.2c4.1,0,8.2,1.6,11.3,4.7l29.5,29.5c6.3,6.3,6.3,16.4,0,22.6s-16.4,6.3-22.6,0l-29.5-29.5c-6.3-6.3-6.3-16.4,0-22.6C388,381.8,392.1,380.2,396.2,380.2z"/>
    <path class="st0" d="M192,64V37.3C192,16.9,208.9,0,229.3,0h53.3C300.6,0,320,13.7,320,43.5V64H192z"/>
    <path class="st0" d="M161.9,372.1c35,28.4,81.1,39.5,126.1,29.9c56.5-11.7,102.4-57.8,114.1-114.3c11.9-58-9.8-115.6-56.3-150.8c-12.6-9.4-21.3-23.9-24.3-40.7v-0.2c-0.4,0.2-1.1,0.2-1.5,0.2H192c-0.4,0-0.6,0-1.1-0.2V96c-3,16.2-12.6,31.1-27.3,42.7c-36.1,28.6-57,71.3-57,117.3C106.7,301.2,126.7,343.5,161.9,372.1z M176,245.3c8.7,0,16,7.3,16,16c0,32.4,26.2,58.7,58.7,58.7c8.7,0,16,7.3,16,16c0,8.7-7.3,16-16,16c-49.9,0-90.7-40.7-90.7-90.7C160,252.6,167.3,245.3,176,245.3z"/>
    <path class="st0" d="M321.5,96H320c0.4,0,1.1,0,1.5-0.2V96z"/>
    <path class="st0" d="M190.9,96v-0.2c0.4,0.2,0.6,0.2,1.1,0.2H190.9z"/>
    <path d="M1907.7,278.6c1.6-2.1,3.3-3.4,5.1-4.1c1.8-0.6,3.4-0.6,4.9,0.2c1.4,0.8,2.2,2.2,2.3,4.3c0.1,2.1-0.8,4.7-2.9,7.8c-1.3,2.1-4.8,6.7-10.5,13.9c-5.7,7.2-12.9,15.5-21.5,25c-8.6,9.5-18.1,19.5-28.5,30.1c-10.4,10.5-21,20.2-31.8,28.9c-10.8,8.7-21.3,15.9-31.6,21.7c-10.3,5.7-19.6,8.6-27.9,8.6c-7-0.5-13.3-2.6-18.7-6.2c-4.7-3.1-9-7.9-12.9-14.3c-3.9-6.4-5.9-15.7-5.9-27.9c0-11.7,2.3-23.5,7-35.3c4.7-11.8,10.7-23.2,18.2-34c7.4-10.8,15.7-20.9,24.8-30.3c9.1-9.4,18-17.6,26.7-24.6c8.7-7,16.9-12.5,24.4-16.4c7.5-3.9,13.5-5.9,18-5.9c2.6,0,5.5,0.6,8.6,1.8c3.1,1.2,6.1,3.3,8.8,6.4c2.7,3.1,5.1,7.6,7,13.3c2,5.7,2.9,13.3,2.9,22.6c0,6.2-2.1,13.1-6.2,20.5c-4.2,7.4-9.5,14.8-16,22.3c-6.5,7.4-13.7,14.6-21.7,21.7c-7.9,7-15.8,13.3-23.4,18.7c-7.7,5.5-14.7,9.8-21.1,13.1c-6.4,3.3-11.3,4.9-14.6,4.9c-2.3,4.9-3.9,9.4-4.7,13.3c-0.5,3.4-0.2,6.4,1,9c1.2,2.6,4.4,3.9,9.6,3.9c6.5,0,15.4-3.4,26.6-10.3c11.2-6.9,23.1-15.7,35.7-26.6c12.6-10.8,25.1-22.9,37.3-36.3C1888.7,304.9,1899.1,291.7,1907.7,278.6z M1842.9,268.5c-1.6,0-3.8,1.2-6.6,3.5c-2.9,2.3-5.9,5.5-9.2,9.4c-3.3,3.9-6.8,8.3-10.5,13.3c-3.8,4.9-7.5,9.9-11.1,14.8c-8.6,12.2-17.8,25.9-27.7,41c13.3-7.8,24.7-16.5,34.4-26c9.6-9.5,17.3-18.4,23-26.7c5.7-8.3,9.2-15.3,10.5-20.9C1846.9,271.3,1846,268.5,1842.9,268.5z"/>
  </symbol>
</svg>
